<?xml version="1.0" encoding="UTF-8"?>
<svg width="32" height="32" version="1.1" viewBox="0 0 8.4666665 8.4666669" xmlns="http://www.w3.org/2000/svg">
<g transform="translate(0 -288.53)">
<g transform="translate(.10905)" fill="none" stroke="#000">
<path d="m1.6557 290.04c-0.47367 0.0405-0.044873 2.0352 0.19038 2.2853v0c-0.29796 0.38-0.34046 0.46046-0.34129 0.91456 0 1.293 1.2425 2.6278 2.7921 2.6279 1.5498 1.3e-4 2.8199-1.3347 2.8199-2.6279-2.869e-4 -0.45221-0.073814-0.53532-0.36899-0.91456v0c0.24284-0.25815 0.69149-2.3753 0.14128-2.2832-0.076779 0.0128-0.95389 1.2119-1.3081 1.4052-0.39688-0.17145-0.8371-0.26131-1.284-0.26211-0.44741 3e-4 -0.88825 0.0899-1.2857 0.26125-0.35494-0.19512-1.2301-1.3915-1.3068-1.4043-0.017194-2e-3 -0.033394-3e-3 -0.048672-2e-3z" stroke-dashoffset="4.3465" stroke-linecap="round" stroke-linejoin="round" stroke-width=".26458" style="paint-order:normal"/>
<path d="m4.3399 295.24c0.62655 6e-3 1.0235-0.36852 1.0025-0.39649-0.14325-0.19084-2.0455-0.22527-2.2208-0.0695 0.12726 0.14596 0.32923 0.45728 1.2183 0.46605z" stroke-width=".26458px"/>
<path d="m4.4329 294.56c-0.052478-0.13914-0.042346-0.2935-0.08354-0.38954 1.1508-0.6757-0.58478-0.58438-0.58478-0.48693 0 0.12456 0.58099 0.51342 0.57086 0.5843" stroke-width=".26458px"/>
<g stroke-width=".19844">
<path d="m2.4661 293.87c-0.88662 0.0884-1.9218 0.15715-2.5201 0.62605"/>
<path d="m2.7167 294.46c-0.53268-0.0156-1.9424 0.82373-2.1442 1.266"/>
<path d="m6.4284 293.82c0.7023-0.10271 1.2675 0.63995 1.9353 0.63995"/>
<path d="m6.317 294.26c0.67216 0.22169 1.3664 0.65228 1.5594 0.87646"/>
</g>
<g transform="matrix(1.1545 0 0 1.1555 -.98895 -45.666)" stroke-dashoffset="4.3465" stroke-linecap="round" stroke-linejoin="round">
<ellipse cx="3.6225" cy="292.99" rx=".55771" ry=".4533" stroke-width=".22908" style="paint-order:normal"/>
<ellipse cx="3.6063" cy="293.03" rx=".041783" ry=".41073" stroke-width=".11454" style="paint-order:normal"/>
</g>
<g transform="matrix(1.1545 0 0 1.1555 1.2775 -45.666)" stroke-dashoffset="4.3465" stroke-linecap="round" stroke-linejoin="round">
<ellipse cx="3.6225" cy="292.99" rx=".55771" ry=".4533" stroke-width=".22908" style="paint-order:normal"/>
<ellipse cx="3.6063" cy="293.03" rx=".041783" ry=".41073" stroke-width=".11454" style="paint-order:normal"/>
</g>
<g stroke-width=".13229">
<path d="m3.9024 295.2v-0.48651"/>
<path d="m4.3229 295.2v-0.48651"/>
<path d="m4.7605 295.2v-0.48651"/>
</g>
</g>
</g>
</svg>
