<svg width="32" height="32" version="1.1" xmlns="http://www.w3.org/2000/svg" xmlns:xlink="http://www.w3.org/1999/xlink">
 <defs>
  <linearGradient id="shade">
   <stop stop-opacity=".19608" offset="0"/>
   <stop stop-opacity="0" offset="1"/>
  </linearGradient>
  <linearGradient id="a" x1="6.9153" x2="6.9153" y1="10.576" y2="-.81356" gradientTransform="matrix(1.8716,0,0,2.3918,1.3325,1.1976)" gradientUnits="userSpaceOnUse" xlink:href="#shade"/>
  <linearGradient id="b" x1="6.9153" x2="6.9153" y1="10.576" y2="-.81356" gradientTransform="matrix(1.2377 0 0 .38863 10.403 2.6237)" gradientUnits="userSpaceOnUse" xlink:href="#shade"/>
  <clipPath id="c">
   <path d="m8.3798 4.0609v8.2898l11.283 5.6799-11.283 6.2172v8.8052h23.85v-28.992h-5.4844c0.0019 0.03645 0.01172 0.07048 0.01172 0.10742 0 1.1222-0.892 2.0254-2 2.0254h-8.9023c-1.108 0-2-0.90323-2-2.0254 0-0.0369 0.0079-0.07102 0.0098-0.10742h-5.4844z" fill="#f0f"/>
  </clipPath>
 </defs>
 <path d="m19.299 1.4807c-0.90282 0-1.654 0.60438-1.9043 1.4336h-1.541c-1.108 0-2 0.90518-2 2.0273 0 1.1222 0.892 2.0254 2 2.0254h8.9023c1.108 0 2-0.90323 2-2.0254s-0.892-2.0273-2-2.0273h-1.541c-0.251-0.8293-1.002-1.4336-1.905-1.4336h-2.0117z" fill="url(#b)" stroke="#000" stroke-width="1.5"/>
 <g clip-path="url(#c)" stroke="#000">
  <rect transform="translate(4,2)" x="6.5505" y="2.9915" width="19.508" height="24.932" clip-path="none" fill="url(#a)" stroke-width="1.5"/>
 </g>
 <g transform="matrix(.66645 0 0 .66645 .63131 -672.79)">
  <path d="m11.777 1026.6c-1.1761-0.01-2.2324 0.9579-2.2324 2.1524 0 0.5388 0.12632 0.7367 0.27148 1.1523 0.13912 0.3984 0.32515 0.8561 0.5293 1.3067-0.70254-0.093-1.3996-0.1861-2.418-0.3086-1.4416-0.1735-2.9813-0.375-3.2383-0.418a1.0001 1.0001 0 0 0-0.089844-0.012c-1.6838-0.1253-2.91 1.3533-2.8438 2.8457v3.1777c0 1.9177 0.00637 2.9932 0.066406 3.7246 0.060039 0.7315 0.2691 1.303 0.54688 1.6446 0.14781 0.1816 0.40163 0.4507 0.75781 0.6074s0.71936 0.1923 1.1367 0.1914c0.83434 0 2.028-0.1561 4.3027-0.4492 0.67363-0.087 1.2279-0.1556 1.7656-0.2227-0.43013 0.8689-0.74009 1.5916-0.74805 2.336-0.00849 0.794 0.51706 1.598 1.1758 1.957 0.16978 0.092 0.64288 0.2722 1.0664 0.2266 0.42353-0.046 0.79532-0.1888 1.3809-0.4415 1.1711-0.5053 3.1898-1.52 7.1895-3.5292 4.3365-2.1785 6.538-3.2796 7.7363-4.0918 0.59916-0.4062 1.0518-0.7547 1.2402-1.4063 0.18842-0.6515-0.11051-1.1967-0.28711-1.5019-0.14166-0.2449-0.22006-0.2788-0.29688-0.3438-0.07681-0.065-0.15084-0.1187-0.23242-0.1758-0.16317-0.1142-0.35867-0.2371-0.5957-0.3808-0.47406-0.2875-1.1075-0.6484-1.8594-1.0625-1.5037-0.8283-3.4712-1.8651-5.4551-2.8829-1.9839-1.0177-3.9821-2.0153-5.5508-2.7636-0.78433-0.3742-1.4596-0.6857-1.9824-0.9102-0.26141-0.1122-0.48377-0.2042-0.67578-0.2734-0.19201-0.069-0.24339-0.1434-0.6543-0.1485a1.0001 1.0001 0 0 0-0.0059 0zm-0.01953 2.0039c-0.16647 0-0.1106-0.013 2e-3 0.027 0.12856 0.046 0.32457 0.1255 0.56445 0.2285 0.47976 0.206 1.1396 0.5094 1.9102 0.877 1.5411 0.7351 3.5294 1.7273 5.5 2.7382 1.9706 1.011 3.9244 2.0425 5.4004 2.8555 0.73802 0.4065 1.3581 0.7582 1.7891 1.0195 0.16795 0.1019 0.27766 0.1747 0.37891 0.2422-0.02919 0.023 0.01495-0.01-0.29102 0.2012-0.92774 0.6288-3.1775 1.7836-7.5117 3.9609-3.9991 2.009-6.0452 3.0322-7.084 3.4805-0.4675 0.2017-0.66412 0.2464-0.72266 0.2598-0.10018-0.038-0.1111 0.016-0.10938-0.1446 0.0021-0.1971 0.15473-0.7704 0.58008-1.6113 0.21724-0.4295 0.39695-0.8178 0.52148-1.1308 0.06227-0.1566 0.11025-0.2858 0.15039-0.4454 0.02007-0.08 0.04863-0.1517 0.04492-0.3496-0.0019-0.099 0.0048-0.2434-0.12891-0.4863-0.13374-0.2429-0.56984-0.5257-0.89062-0.5254a1.0001 1.0001 0 0 0-2e-3 0c-0.18476 6e-4 -0.13862 0.01-0.19922 0.016-0.0606 0.01-0.1379 0.014-0.23242 0.025-0.18905 0.022-0.44614 0.053-0.75781 0.092-0.62335 0.077-1.4584 0.1811-2.3574 0.2969-2.2717 0.2928-3.4939 0.4324-4.0527 0.4336-0.2794 6e-4 -0.35815-0.035-0.32812-0.021 0.030027 0.013 0.074764 0.065-0.011719-0.041-0.071768-0.088-0.058489 0.029-0.10547-0.543-0.04698-0.5723-0.058594-1.6516-0.058594-3.5625v-3.2226a1.0001 1.0001 0 0 0-0.00195-0.045c-0.01803-0.406 0.22478-0.7915 0.69336-0.7597 0.49608 0.08 1.8274 0.2496 3.2422 0.4199 1.4421 0.1736 3.0104 0.3743 3.3848 0.4316l0.78516 0.1211a1.0001 1.0001 0 0 0 1.0605-1.4043l-0.73242-1.6015c-0.18823-0.4112-0.36186-0.8462-0.48242-1.1914s-0.16016-0.7575-0.16016-0.4922c0-0.1215 0.0127-0.1483 0.21289-0.1485zm15.695 7.8848c0.01079-0.037-0.09231 0.073-0.0918 0.064-0.0059-0.01-0.0014 0-0.0078-0.01 0.13951 0.2412 0.04799 0.1238 0.09961-0.055z" color="#000000" color-rendering="auto" image-rendering="auto" shape-rendering="auto" solid-color="#000000" style="block-progression:tb;isolation:auto;mix-blend-mode:normal;text-decoration-color:#000000;text-decoration-line:none;text-decoration-style:solid;text-indent:0;text-transform:none;white-space:normal"/>
 </g>
</svg>
