<svg width="32" height="32" version="1.1" xmlns="http://www.w3.org/2000/svg" xmlns:xlink="http://www.w3.org/1999/xlink">
<g>
<path d="m22.6 0.755c-2.05-0.0313-3.54 1.8-4.16 3.57l-4.03 11.1c-3.43 1.3-5.11 4.04-5.76 3.49-0.509-0.435 0.00195-0.807-1.38-1.87-1.33-1.02-3.41-0.496-4.4 0.831-1.08 1.25-1.23 3.37 0.0869 4.52 1.26 1.24 3.46 1.17 4.68-0.0824 1.56-1.36 2.98-4.93 6.4-4.24 0.955 2.48-0.502 4.2-1.91 5.67-1.17 1.22-2.12 3.08-1.38 4.77 0.704 1.63 2.92 2.52 4.45 1.47 1.68-0.941 2.65-3.37 1.35-5.04-1-1.29-2.31-0.918-2.47-1.63-0.12-0.534 1.43-1.95 2.57-5.86l11-6.36c1.3-0.876 2.49-2.29 2.23-4.28l-11.6 6.39zm-18 17.1c1.87-0.693 3.79 1.13 3 2.84-0.63 1.62-3.2 2.17-4.21 0.622-0.909-1.18-0.0694-2.99 1.21-3.46zm8.25 6.95c1.69-0.946 3.83 1.29 2.94 2.96-0.473 1.21-2.08 2.14-3.26 1.3-1.49-0.96-1.36-3.56 0.313-4.26z" stop-color="#000000"/>
</g>
</svg>
