<svg version="1.1" viewBox="0 0 32 32" xmlns="http://www.w3.org/2000/svg">
<path d="m20.9578 1.76387-2.06305 4.58941c-6.59208-.285439-13.3947 2.72952-16.3302 8.88128-.481822 1.00914-.481822 1.70368-.000484 2.71282 1.63919 3.43398 4.49479 5.86729 7.83402 7.31929l-1.76503 3.92766 2.32042 1.04181 12.3251-27.4307zm3.19077 5.58439-.9075 2.02264c1.75087.6655 3.41583 1.69158 4.85331 3.13148l1.70247-1.90212c-1.62624-1.47959-3.56466-2.54983-5.64828-3.252zm-6.20367 1.0942c.0036-.000121.0073.000121.01089 0l-6.47713 14.4159c-1.8484-1.1374-3.37275-2.75638-4.28013-4.84968-.619157-1.42901-.619157-1.40602 0-2.83624 1.83993-4.24468 6.15926-6.62209 10.7464-6.73038zm2.85923 6.34802-.56749 1.26203.08954-.02178c.04598.17908.07139.36663.07139.56023 0 .62315-.25168 1.18701-.65945 1.59478-.18997.19118-.41624.34122-.66429.45375l-.50336 1.12046c.7139-.0968 1.35762-.41261 1.84404-.89782.5808-.58201.94017-1.38303.94017-2.27117 0-.66671-.20328-1.28744-.55055-1.80048zm7.29025 5.88907c-3.26821 3.27426-7.68713 4.47337-11.6959 3.91556l-.93049 2.07515c5.12556.67397 10.5536-.65219 14.3288-4.08859z" fill-rule="evenodd" stroke-width="1.21"/>
<path d="m-36.5098 6.623v18.658h20.61l4.158-4.158.023-10.178-4.228-4.322z" fill="none"/>
</svg>
