<svg version="1.1" viewBox="0 0 32 32" xmlns="http://www.w3.org/2000/svg">
<path d="m7.19931 15.1744c3.27039-7.5458 14.3784-9.19817 20.8955-2.67168l1.70247-1.90248c-7.7561-7.06046-22.506-5.26991-27.2335 4.6343-.481423 1.00964-.481423 1.70392 0 2.71342 4.72747 9.90397 19.4774 11.694 27.2335 4.63442l-1.70247-1.90285c-6.5167 6.5271-17.6236 4.874-20.8955-2.6712-.619218-1.42913-.619218-1.40481 0-2.83418zm10.9429-1.79697c.887269 0 1.6911.359817 2.27262.941343.581333.581526.94115 1.38509.94115 2.2725 0 .887463-.359817 1.6911-.94115 2.27262-.581526.581526-1.38533.941332-2.27262.941332-.887523 0-1.6911-.359818-2.27262-.941332-.581526-.581526-.94115-1.38509-.94115-2.27262 0-.887341.359624-1.69098.94115-2.2725s1.38509-.941343 2.27262-.941343zm.0049 3.1996.85962-2.06934c-.266175-.110449-.558257-.171784-.864387-.171784-.622787 0-1.18694.252624-1.5949.660672-.408049.408048-.660672.972138-.660672 1.59478 0 .622787.252623 1.18688.660672 1.5949.407988.408048.972138.660672 1.5949.660672.622726 0 1.1867-.252624 1.5949-.660672.408048-.407988.660672-.972065.660672-1.5949 0-.193104-.02453-.380642-.07025-.559697z" fill-rule="evenodd" stroke-width="1.21"/>
</svg>
