<svg version="1.1" viewBox="0 0 32 32" xmlns="http://www.w3.org/2000/svg">
<g transform="translate(0 -1020.36)">
<path transform="translate(0 1020.36)" d="m0.921875 4.39453a0.922899 0.922899 0 0 0-0.921875 0.921875v21.3691a0.922899 0.922899 0 0 0 0.921875 0.921875h23.9004a0.922899 0.922899 0 0 0 0.880859-0.644531h0.015625l6.01758-12.1621c0.539309-1.0899 0.224502-1.9668-0.707031-1.9668h-5.2832v-3.33008a0.922899 0.922899 0 0 0-0.923828-0.923828h-13.8047l-1.41211-3.59961a0.922899 0.922899 0 0 0-0.859375-0.585938h-7.82422zm0.923828 1.8457h6.27148l1.41016 3.59961a0.922899 0.922899 0 0 0 0.859375 0.585937h13.5137v2.4082h-14.3066c-0.931533 0-2.11694 0.876897-2.65625 1.9668l-5.0918 10.291v-18.8516z" color="#000000" color-rendering="auto" fill-rule="evenodd" image-rendering="auto" shape-rendering="auto" solid-color="#000000" style="block-progression:tb;isolation:auto;mix-blend-mode:normal;text-decoration-color:#000000;text-decoration-line:none;text-decoration-style:solid;text-indent:0;text-transform:none;white-space:normal"/>
<path d="m14.335 1046.46c-3.09222-0.9087-4.67208-3.9545-3.0192-5.8205 1.84088-2.0783 5.71913-4.0694 9.11786-4.6815 2.1159-0.381 4.42636 0 5.83148 0.9936 1.15282 0.8018 1.1882 1.0153 0.28628 1.7265-0.620743 0.4895-0.634668 0.489-0.938953-0.034-0.558758-0.9617-1.6095-1.4442-3.40978-1.565-1.01551-0.068-2.22021 0-2.83992 0.1838-1.70084 0.4802-3.87329 1.7387-5.07004 2.9372l-1.10381 1.1055-0.0027 1.0786c-0.0033 1.2599 0.952297 2.4981 2.23987 2.9027 1.92234 0.6042 5.29558-0.027 7.49472-1.3927 0.840386-0.5231 0.854846-0.5237 0.973906-0.034 0.169713 0.6962 0.102716 0.7743-1.17723 1.3751-2.76964 1.2999-6.34896 1.823-8.38321 1.2251zm3.746-4.5803c-0.01823-0.8089 0.978355-1.7687 1.83658-1.7687 0.559458 0 0.593823 0.087 0.21781 0.54-0.381426 0.4596-0.354662 0.5145 0.179605 0.3687 0.484141-0.1318 0.572504-0.064 0.381698 0.3088-0.583868 1.1388-2.59284 1.5619-2.61569 0.5512z" fill="#fff"/>
</g>
</svg>
