<svg version="1.1" viewBox="0 0 32 32" xmlns="http://www.w3.org/2000/svg">
<rect x="1.5" y="1.49998" width="29" height="29" fill="none" stroke="#000" stroke-width="1.5"/>
<g shape-rendering="auto">
<path d="m18.8732 5.1493c-0.98327 0.999416 0.163415 2.21583 1.24997 2.3755-0.962484 0.959265-2.54014 1.46491-3.02298 2.79691-0.171893 1.21848 1.04272 1.84991 1.72377 2.65659 0.893461 0.80193 2.12504 2.6881 3.41046 1.439 0.772018-0.644001 1.56806-2.33128 2.18582-2.46304 0.109403 1.21265 1.89576 1.99789 2.49075 0.698881 1.09926-2.87904 2.03259-5.82534 2.93367-8.77259 0.857682-1.61575-0.965212-2.59868-2.2667-1.71546-2.86773 0.857933-5.74389 1.71993-8.52193 2.83935l-0.180639 0.140662h-0.0023zm0.780057 0.7954c0.884099-0.343108 2.27169-0.838597 3.3534-1.18808 1.95383-0.631112 3.90314-1.28969 5.89737-1.78272-0.736482 2.92004-1.8002 5.75089-2.75224 8.60681-0.736192 1.95293-0.634687-2.10646-1.93702-1.3575-1.05556 1.06158-1.88334 2.57839-2.92602 3.51789-1.0971-0.881669-2.07559-1.94896-3.06569-2.96264 0.441579-1.2064 2.18443-1.84556 3.14502-2.80677 0.539804-0.179061 0.623311-1.02497 0.016771-1.16326-0.577429-0.209273-1.35138-0.498014-1.7568-0.722936-0.104998 0.016431 0.03138-0.199862 0.0252-0.1408zm9.26934-3.0704c-0.117121 0.098911 0.230309 0.118341 0 0z" color="#000000" color-rendering="auto" image-rendering="auto" solid-color="#000000" style="isolation:auto;mix-blend-mode:normal;text-decoration-color:#000000;text-decoration-line:none;text-decoration-style:solid;text-indent:0;text-transform:none;white-space:normal"/>
<path d="m12.8866 5.1493c0.983268 0.999416-0.163414 2.21583-1.24997 2.3755 0.962484 0.959265 2.54014 1.46491 3.02298 2.79691 0.171893 1.21848-1.04272 1.84991-1.72377 2.65659-0.89346 0.801931-2.12504 2.6881-3.41046 1.439-0.772018-0.644001-1.56805-2.33128-2.18582-2.46304-0.109404 1.21265-1.89576 1.99789-2.49075 0.698881-1.09926-2.87904-2.03259-5.82534-2.93367-8.77259-0.857688-1.61574 0.965212-2.59868 2.2667-1.71546 2.86773 0.857933 5.74389 1.71993 8.52193 2.83935l0.180639 0.140662h0.0023zm-0.780056 0.7954c-0.884099-0.343108-2.27169-0.838597-3.3534-1.18808-1.95383-0.631112-3.90314-1.28969-5.89737-1.78272 0.736482 2.92004 1.8002 5.75089 2.75224 8.60681 0.736191 1.95293 0.634685-2.10646 1.93702-1.3575 1.05554 1.06158 1.88334 2.57839 2.92601 3.51789 1.0971-0.881669 2.07559-1.94896 3.06569-2.96264-0.441578-1.2064-2.18443-1.84556-3.14502-2.80677-0.539802-0.179061-0.623311-1.02497-0.016771-1.16326 0.577429-0.209273 1.35138-0.498014 1.7568-0.722936 0.105247 0.0164064-0.03176-0.199828-0.025193-0.1408zm-9.26934-3.0704c0.117121 0.098911-0.230308 0.118342 0 0z" color="#000000" color-rendering="auto" image-rendering="auto" solid-color="#000000" style="isolation:auto;mix-blend-mode:normal;text-decoration-color:#000000;text-decoration-line:none;text-decoration-style:solid;text-indent:0;text-transform:none;white-space:normal"/>
<path d="m18.8732 26.8834c-0.98327-0.999416 0.163415-2.21583 1.24997-2.3755-0.96276-0.959233-2.54038-1.46526-3.02298-2.79791-0.171893-1.21848 1.04272-1.84991 1.72377-2.65659 0.893517-0.801953 2.12487-2.68799 3.41046-1.439 0.772018 0.644001 1.56806 2.33128 2.18582 2.46304 0.109426-1.21266 1.89571-1.99788 2.49075-0.698868 1.09929 2.87903 2.03256 5.82535 2.93367 8.77259 0.857664 1.61584-0.96516 2.59848-2.2667 1.71549-2.86774-0.857903-5.74387-1.72001-8.52193-2.83939l-0.180639-0.140663h-0.0023zm0.780057-0.7954c0.885036 0.343391 2.27152 0.83844 3.3534 1.18807 1.95382 0.631122 3.90314 1.28969 5.89737 1.78273-0.736482-2.92004-1.8002-5.75089-2.75224-8.60681-0.736256-1.95304-0.634618 2.10664-1.93702 1.35726-1.0579-1.08498-1.8223-2.45642-2.90529-3.52875-0.686094 0.459732-1.37661 1.26976-2.03903 1.90133-0.351825 0.415479-0.866437 0.725772-1.09464 1.22226 0.82365 1.07072 2.19894 1.79552 3.25691 2.70517 0.555336 0.21191 0.477178 1.06849-0.122947 1.14387-0.559298 0.220858-1.37989 0.466099-1.71646 0.754346l0.06005 0.08263zm9.26934 3.0704c-0.117121-0.09891 0.230309-0.118341 0 0z" color="#000000" color-rendering="auto" image-rendering="auto" solid-color="#000000" style="isolation:auto;mix-blend-mode:normal;text-decoration-color:#000000;text-decoration-line:none;text-decoration-style:solid;text-indent:0;text-transform:none;white-space:normal"/>
<path d="m12.8866 26.8834c0.983268-0.999416-0.163414-2.21583-1.24997-2.3755 0.96276-0.959233 2.54038-1.46526 3.02298-2.79791 0.171893-1.21848-1.04272-1.84991-1.72377-2.65659-0.893517-0.801953-2.12487-2.68799-3.41046-1.439-0.772018 0.644001-1.56805 2.33128-2.18582 2.46304-0.109426-1.21266-1.89571-1.99788-2.49075-0.698868-1.09928 2.87903-2.03256 5.82535-2.93367 8.77259-0.85767 1.61584 0.965161 2.59848 2.2667 1.71549 2.86774-0.857903 5.74387-1.72001 8.52193-2.83939l0.180639-0.140663h0.0023zm-0.780056-0.7954c-0.885036 0.343391-2.27152 0.83844-3.3534 1.18807-1.95382 0.631122-3.90314 1.28969-5.89737 1.78273 0.736482-2.92004 1.8002-5.75089 2.75224-8.60681 0.736255-1.95304 0.634617 2.10664 1.93702 1.35726 1.05789-1.08499 1.82229-2.45642 2.90528-3.52875 0.686095 0.459732 1.37661 1.26976 2.03903 1.90133 0.351825 0.415479 0.866437 0.725772 1.09464 1.22226-0.823648 1.07072-2.19894 1.79552-3.25691 2.70517-0.555335 0.21191-0.477178 1.06849 0.122947 1.14387 0.559299 0.220858 1.37989 0.466099 1.71646 0.754346l-0.06005 0.08263zm-9.26934 3.0704c0.117121-0.09891-0.230308-0.118342 0 0z" color="#000000" color-rendering="auto" image-rendering="auto" solid-color="#000000" style="isolation:auto;mix-blend-mode:normal;text-decoration-color:#000000;text-decoration-line:none;text-decoration-style:solid;text-indent:0;text-transform:none;white-space:normal"/>
</g>
</svg>
