<?xml version="1.0" encoding="UTF-8"?>
<svg version="1.1" viewBox="0 0 32 32" xmlns="http://www.w3.org/2000/svg" xmlns:xlink="http://www.w3.org/1999/xlink">
 <defs>
  <radialGradient id="radialGradient5731" cx="15.844" cy="15.915" r="15" gradientTransform="translate(5e-8 -4.195e-6)" gradientUnits="userSpaceOnUse">
   <stop stop-opacity=".12549" offset="0"/>
   <stop stop-opacity="0" offset="1"/>
  </radialGradient>
 </defs>
 <path d="m15.214 1.5-1.4809 3.1064-0.02257 0.71994 0.46184 2.1548-2.905 1.2032-1.1969-1.8503-0.5251-0.49303-3.2433-1.1494-1.1111 1.1111 1.1494 3.2436 0.49303 0.5251 1.8503 1.1969-1.2035 2.905-2.1545-0.46214-0.72023 0.02257-3.1061 1.4809v1.5711l3.1061 1.4809 0.72023 0.02257 2.1545-0.46214 1.2035 2.9053-1.8503 1.1966-0.49303 0.5254-1.1494 3.2433 1.1111 1.1111 3.2433-1.1494 0.5251-0.49302 1.1969-1.8503 2.905 1.2032-0.46184 2.1548 0.02257 0.71993 1.4809 3.1064h1.5711l1.4806-3.1064 0.02286-0.71993-0.46214-2.1548 2.905-1.2032 1.1969 1.8503 0.5251 0.49302 3.2436 1.1494 1.1111-1.1111-1.1494-3.2433-0.49332-0.5254-1.8503-1.1966 1.2035-2.9053 2.1548 0.46214 0.71994-0.02257 3.1064-1.4809v-1.5711l-3.1064-1.4809-0.71994-0.02257-2.1548 0.46214-1.2035-2.905 1.8503-1.1969 0.49332-0.5251 1.1494-3.2436-1.1111-1.1111-3.2436 1.1494-0.5251 0.49303-1.1969 1.8503-2.905-1.2032 0.46214-2.1548-0.022864-0.71994-1.4806-3.1064zm0.78557 10.698a3.8016 3.8016 0 0 1 3.8016 3.8016 3.8016 3.8016 0 0 1-3.8016 3.8016 3.8016 3.8016 0 0 1-3.8016-3.8016 3.8016 3.8016 0 0 1 3.8016-3.8016z" fill="url(#radialGradient5731)" stroke="#000"/>
</svg>
