<svg version="1.1" viewBox="0 0 32 32" xmlns="http://www.w3.org/2000/svg" xmlns:xlink="http://www.w3.org/1999/xlink">
<defs>
<filter id="filter5411" color-interpolation-filters="sRGB">
<feFlood flood-color="rgb(0,0,0)" flood-opacity=".596078" result="flood"/>
<feComposite in="flood" in2="SourceGraphic" operator="in" result="composite1"/>
<feGaussianBlur in="composite1" result="blur" stdDeviation="1"/>
<feOffset dx="1" dy="1" result="offset"/>
<feComposite in="SourceGraphic" in2="offset" result="composite2"/>
</filter>
<linearGradient id="linearGradient5452" x1="5.30606" x2="31.144" y1="1023.08" y2="1054.24" gradientUnits="userSpaceOnUse">
<stop stop-color="#ccc" offset="0"/>
<stop stop-color="#fff" offset="1"/>
</linearGradient>
</defs>
<g transform="translate(0 -1020.36)">
<rect transform="matrix(.9435 0 0 .9435 .339815 57.7906)" x="4.18515" y="1020.36" width="23.6297" height="32" rx="4" ry="4" fill="#fff" filter="url(#filter5411)"/>
<rect transform="matrix(.9435 0 0 .9435 .339815 57.7906)" x="4.18515" y="1020.36" width="23.6297" height="32" rx="4" ry="4" fill="url(#linearGradient5452)"/>
<g>
<g>
<path d="m16.2647 1020.72c-0.441479 0-0.869411 0.039-1.26567 0.1173-2.54614 0.5053-4.90348 2.1501-5.54343 3.8654-0.574627 1.5402 2.01764 4.054 4.9543 4.8039 1.93188 0.4935 4.66414 0.06 6.40003-1.0123 0.367322-0.227 0.570318-0.3633 0.64158-0.4997h0.0086v-0.02c0.02925-0.067 0.02729-0.1344-0.0034-0.2147l-0.03144-2.4491c-0.0052-0.306-0.254938-0.5527-0.561133-0.5539l-4.51204-0.041-0.06846 1.9322 1.29796-0.041 0.0017-0.7939 2.72489 0.067 0.01746 1.5782c-1.26311 1.0807-3.70946 1.5664-5.51196 1.0787-1.23393-0.334-2.54632-1.3568-3.07677-2.3969l-0.452772-0.8898 0.442283-0.9124c0.480625-0.9895 1.74151-2.0285 2.94216-2.4249 0.433673-0.1431 1.39861-0.2064 2.26562-0.1502 1.53696 0.1 2.609 0.4983 3.4771 1.2919 0.472246 0.4317 0.483207 0.432 0.788418 0.028 0.443417-0.587 0.323998-0.7629-0.966731-1.4249-1.18508-0.6077-2.6439-0.9422-3.96834-0.9388z"/>
<path d="m12.6173 1030.63c-0.258509 0.02-0.520482 0.1981-0.905059 0.5217-1.17262 0.9869-3.82918 5.3395-4.61051 7.5538l-0.3225 0.9134h1.02992 1.02962l0.550019-1.3861c0.595994-1.5021 2.27816-4.6452 2.9288-5.4724l0.40386-0.5137 0.690555 1.0036c0.239424 0.3479 0.634538 1.0575 1.05743 1.8608-0.759887 1.302-1.44044 2.6449-1.7755 3.5944l-0.322202 0.9134h1.02962 1.02992l0.550017-1.3861c0.123554-0.3114 0.300776-0.7028 0.498835-1.1199 0.533762 1.1025 0.95578 2.0525 0.957133 2.2372 0.0013 0.1794 0.364536 0.2688 1.09205 0.2688 1.29931 0 1.30282 0.059-0.17397-2.8923-0.293694-0.5868-0.577065-1.1228-0.853581-1.6236 0.550702-1.0206 1.09755-1.9475 1.40833-2.3426l0.403859-0.5137 0.690556 1.0036c0.755392 1.0978 3.02208 5.6683 3.02525 6.0998 0.0013 0.1794 0.364536 0.2688 1.09205 0.2688 1.29931 0 1.30282 0.059-0.173971-2.8923-1.34484-2.688-2.5079-4.4692-3.50604-5.3709-1.01919-0.9209-1.25802-0.9436-2.13706-0.204-0.445275 0.3747-1.10453 1.2358-1.79385 2.2796-0.598183-0.9232-1.15139-1.6151-1.6613-2.0756-0.573296-0.518-0.899922-0.7517-1.23229-0.7257z"/>
<path d="m16.2636 1040.73c-0.44155 0-0.867801 0.038-1.26412 0.1175-2.54654 0.5052-4.906 2.1505-5.54605 3.8659-0.574718 1.5403 2.01971 4.0546 4.95683 4.8047 1.93219 0.4935 4.66488 0.06 6.40104-1.0125 0.802322-0.4958 0.824623-0.56 0.389903-1.1345-0.305696-0.404-0.317965-0.4039-0.790296 0.027-1.23683 1.1311-3.75427 1.649-5.59676 1.1505-1.23412-0.3343-2.54672-1.3572-3.07726-2.397l-0.454593-0.8899 0.444103-0.9129c0.480701-0.9895 1.74004-2.0289 2.94088-2.425 0.433739-0.1431 1.40057-0.2067 2.26773-0.1504 1.5372 0.1 2.60766 0.4982 3.4759 1.2922 0.472325 0.432 0.485034 0.4321 0.790296 0.029 0.443486-0.587 0.324051-0.7647-0.966886-1.4268-1.18526-0.6078-2.64606-0.9407-3.97071-0.9373zm0.0682 3.546c-0.708445 0-1.12494 0.7919-0.767565 1.4597 0.446606 0.8347 1.92503 0.4854 1.92503-0.4545 0-0.3062-0.101746-0.3644-0.445854-0.2551-0.379372 0.1202-0.424638 0.075-0.304227-0.3044 0.118822-0.3743 0.05444-0.4457-0.407387-0.4457z"/>
</g>
</g>
</g>
</svg>
