<svg version="1.1" viewBox="0 0 32 32" xmlns="http://www.w3.org/2000/svg">
<path d="m17.5977 6.17383-16.4824 9.51758-0.115234 4.60156 13.5234 7.70703 16.4766-9.74805-1.48438-0.882812-14.8066 8.53516-11.8066-6.57422-0.00391-2.41406 11.6484 6.68359 16.4492-9.60352zm4.03125 4.3125c0.842774 0.06212 1.29527 0.25306 1.8457 0.783203 0.438579 0.42241 0.141748 1.05017-0.632813 1.33594-1.12057 0.413434-2.83243-0.219642-2.9082-1.07422-0.05156-0.581541 0.807808-1.11034 1.69531-1.04492zm-5.48438 1.00977c1.47052 0.88467 2.94269 1.76949 4.41992 2.6582l-9.22461 5.38672-2.96289-1.80859 6.75586-3.91406-1.47266-0.890623z"/>
</svg>
