<svg shape-rendering="crispEdges" version="1.1" viewBox="0 0 32 32" xmlns="http://www.w3.org/2000/svg">
<path d="m5.70508 0.478516c-1.27606 0.0581035-2.28306 1.10545-2.29102 2.38281l-0.0234375 3.33984 6.52344 0.0136719-1.9043-4.30859c-0.400179-0.905746-1.3155-1.47278-2.30469-1.42773zm20.1855 0c-0.909673 0.0271289-1.72576 0.566397-2.10742 1.39258l-2.01562 4.37109 6.59375 0.013672v-3.37891c-4.33e-4 -1.35292-1.11837-2.43815-2.4707-2.39844zm-22.5332 10.5215-0.056641 7.98325 4.80078 0.0031 0.033203-4.91797 2.17383 4.91797h5.24805l-3.51953-7.9668zm16.1973 0.03516-3.66602 7.95117h5.28516l2.38867-5.17774v5.17773h4.79883v-7.93164zm-16.3145 12.7539-0.00391 4.47852c-0.022733 3.20111 4.77805 3.23431 4.80078 0.0332l0.03125-4.51367zm9.18945-2e-3 1.04687 2.36914c0.835217 1.89007 3.50952 1.91156 4.375 0.03516l1.10938-2.4043zm11.1328 0v4.49609c-0.08619 3.28428 4.88502 3.28428 4.79883 0v-4.49609z" color="#000000" color-rendering="auto" fill="#333" fill-rule="evenodd" image-rendering="auto" shape-rendering="auto" solid-color="#000000" style="isolation:auto;mix-blend-mode:normal;text-decoration-color:#000000;text-decoration-line:none;text-decoration-style:solid;text-indent:0;text-transform:none;white-space:normal"/>
</svg>
