<?xml version="1.0" encoding="UTF-8" standalone="no"?>
<svg xmlns:rdf="http://www.w3.org/1999/02/22-rdf-syntax-ns#" xmlns="http://www.w3.org/2000/svg" height="32" width="32" version="1.1" xmlns:cc="http://creativecommons.org/ns#" xmlns:dc="http://purl.org/dc/elements/1.1/">
<path fill="#ff0" d="m26.21 25.585c3.039-3.237-14.199-7.63-10.152-9.457 4.046-1.828-4.054 14.009 0.384 13.869s-4.645-15.435-0.491-13.866c4.153 1.569-12.773 7.04-9.536 10.079 3.2371 3.039 7.63-14.199 9.457-10.152 1.828 4.046-14.009-4.054-13.869 0.384 0.1399 4.438 15.435-4.645 13.866-0.491-1.569 4.153-7.0402-12.773-10.079-9.536-3.039 3.2371 14.199 7.63 10.152 9.457-4.046 1.828 4.054-14.009-0.384-13.869-4.438 0.1399 4.645 15.435 0.491 13.866-4.153-1.569 12.773-7.0402 9.536-10.079-3.237-3.039-7.63 14.199-9.457 10.152-1.8277-4.0463 14.01 4.0534 13.87-0.38437-0.14014-4.4378-15.435 4.6451-13.866 0.4915 1.5688-4.1536 7.0402 12.773 10.079 9.5355z"/>
</svg>
