<svg version="1.1" viewBox="0 0 32 32" xmlns="http://www.w3.org/2000/svg">
<g transform="translate(0 -1020.36)">
<path d="m12.1836 1026.4c-1.17606-0.01-2.23242 0.9579-2.23242 2.1524 0 0.5388 0.126321 0.7367 0.271484 1.1523 0.139115 0.3984 0.32515 0.8561 0.529297 1.3067-0.702542-0.093-1.39965-0.1861-2.41797-0.3086-1.44164-0.1735-2.98126-0.375-3.23828-0.418a1.0001 1.0001 0 0 0-0.089844-0.012c-1.68383-0.1253-2.91002 1.3533-2.84375 2.8457v3.1777c0 1.9177 0.00637 2.9932 0.066406 3.7246 0.060039 0.7315 0.269098 1.303 0.546875 1.6446 0.147808 0.1816 0.401634 0.4507 0.757812 0.6074 0.356179 0.1567 0.71936 0.1923 1.13672 0.1914 0.834342-0 2.02798-0.1561 4.30273-0.4492 0.673631-0.087 1.22794-0.1556 1.76562-0.2227-0.430126 0.8689-0.74009 1.5916-0.748047 2.336-0.00849 0.794 0.517062 1.598 1.17578 1.957 0.169777 0.092 0.642876 0.2722 1.06641 0.2266 0.42353-0.046 0.795315-0.1888 1.38086-0.4415 1.17109-0.5053 3.18981-1.52 7.18945-3.5292 4.33648-2.1785 6.53802-3.2796 7.73633-4.0918 0.599156-0.4062 1.05181-0.7547 1.24024-1.4063 0.188421-0.6515-0.110511-1.1967-0.287109-1.5019-0.141663-0.2449-0.220062-0.2788-0.296876-0.3438-0.07681-0.065-0.150838-0.1187-0.232421-0.1758-0.163168-0.1142-0.358671-0.2371-0.595703-0.3808-0.474065-0.2875-1.10752-0.6484-1.85938-1.0625-1.5037-0.8283-3.47119-1.8651-5.45508-2.8829-1.98388-1.0177-3.98213-2.0153-5.55078-2.7636-0.784327-0.3742-1.4596-0.6857-1.98242-0.9102-0.261413-0.1122-0.48377-0.2042-0.675781-0.2734-0.192011-0.069-0.243386-0.1434-0.654297-0.1485a1.0001 1.0001 0 0 0-0.0059 0zm-0.01953 2.0039c-0.16647-0-0.110603-0.013 2e-3 0.027 0.128565 0.046 0.324574 0.1255 0.564453 0.2285 0.479758 0.206 1.1396 0.5094 1.91016 0.877 1.54112 0.7351 3.52944 1.7273 5.5 2.7382 1.97056 1.011 3.92435 2.0425 5.40039 2.8555 0.738018 0.4065 1.35806 0.7582 1.78906 1.0195 0.167946 0.1019 0.277664 0.1747 0.378906 0.2422-0.02919 0.023 0.01495-0.01-0.291015 0.2012-0.927739 0.6288-3.17747 1.7836-7.51172 3.9609-3.99909 2.009-6.04517 3.0322-7.08398 3.4805-0.467497 0.2017-0.664117 0.2464-0.722657 0.2598-0.100175-0.038-0.111096 0.016-0.109375-0.1446 0.0021-0.1971 0.154726-0.7704 0.580078-1.6113 0.217236-0.4295 0.396949-0.8178 0.521485-1.1308 0.06227-0.1566 0.110249-0.2858 0.150391-0.4454 0.02007-0.08 0.04863-0.1517 0.04492-0.3496-0.0019-0.099 0.0048-0.2434-0.128906-0.4863-0.133735-0.2429-0.569836-0.5257-0.890625-0.5254a1.0001 1.0001 0 0 0-2e-3 0c-0.184764 6e-4 -0.138621 0.01-0.199219 0.016-0.0606 0.01-0.137896 0.014-0.232422 0.025-0.189052 0.022-0.446139 0.053-0.757812 0.092-0.623346 0.077-1.45837 0.1811-2.35742 0.2969-2.27169 0.2928-3.49393 0.4324-4.05273 0.4336-0.279402 6e-4 -0.358152-0.035-0.328125-0.021 0.030027 0.013 0.074764 0.065-0.011719-0.041-0.071768-0.088-0.058489 0.029-0.105469-0.543-0.04698-0.5723-0.058594-1.6516-0.058594-3.5625v-3.2226a1.0001 1.0001 0 0 0-0.00195-0.045c-0.01803-0.406 0.22478-0.7915 0.693359-0.7597 0.496079 0.08 1.82739 0.2496 3.24219 0.4199 1.44212 0.1736 3.01044 0.3743 3.38477 0.4316l0.785156 0.1211a1.0001 1.0001 0 0 0 1.06055-1.4043l-0.732422-1.6015c-0.188226-0.4112-0.361863-0.8462-0.482422-1.1914s-0.160156-0.7575-0.160156-0.4922c0-0.1215 0.0127-0.1483 0.21289-0.1485zm15.6953 7.8848c0.01079-0.037-0.09231 0.073-0.0918 0.064-0.0059-0.01-0.0014 0-0.0078-0.01 0.139514 0.2412 0.04799 0.1238 0.09961-0.055z" color="#000000" color-rendering="auto" image-rendering="auto" shape-rendering="auto" solid-color="#000000" style="block-progression:tb;isolation:auto;mix-blend-mode:normal;text-decoration-color:#000000;text-decoration-line:none;text-decoration-style:solid;text-indent:0;text-transform:none;white-space:normal"/>
</g>
</svg>
