<svg version="1.1" viewBox="0 0 32 32" xmlns="http://www.w3.org/2000/svg">
<path d="m20.6763 15.2336c-1.73674-0.01976-3.60497 0.598298-4.6355 2.07-0.921184 1.28762-1.193 3.08143-0.523755 4.53686 0.34299 0.20806 0.02953 0.484139-0.06795 0.735136-0.514774 1.00383-1.02955 2.00767-1.54432 3.0115 1.29548 0.752586 2.54931 1.64302 4.04544 1.95066 2.01738 0.453567 4.34821 0.199449 5.95261-1.20646 1.55501-1.37906 2.09328-3.88046 0.980588-5.69054-0.129911-0.369026-0.720694-0.641551-0.356016-1.02459 0.504049-0.96279 1.0081-1.92558 1.51215-2.88837-1.47078-0.577114-2.90711-1.33335-4.5103-1.45402-0.282832-0.02692-0.571927-0.04451-0.85294-0.04018zm0 2.0019c0.880219-0.0018 1.75912 0.175637 2.57227 0.5118-0.315755 0.604167-0.631511 1.20833-0.947266 1.8125-0.643031-0.310126-1.45334-0.586667-2.13824-0.256675-0.655927 0.650658 0.393985 1.05434 0.943088 1.07366 0.964177 0.15374 2.02311 0.665143 2.28091 1.69249 0.315021 1.12223-0.147898 2.41479-1.15036 3.03072-1.2474 0.783012-2.85326 0.78785-4.23266 0.387404-0.426818-0.207374-1.34332-0.349749-1.39882-0.780246 0.317967-0.61945 0.635935-1.2389 0.953903-1.85835 0.804021 0.519283 1.80353 0.984764 2.77422 0.70937 0.62282-0.244281 0.306779-1.11597-0.28411-1.13028-0.885199-0.262619-1.9723-0.289122-2.5541-1.119-0.77391-1.1993-0.208054-2.94984 1.03072-3.60065 0.65152-0.364466 1.4137-0.471483 2.15046-0.47273z" color="#000000" color-rendering="auto" image-rendering="auto" shape-rendering="auto" solid-color="#000000" style="isolation:auto;mix-blend-mode:normal;text-decoration-color:#000000;text-decoration-line:none;text-decoration-style:solid;text-indent:0;text-transform:none;white-space:normal"/>
<path d="m12.1836 6.03906v0.00195c-1.17606-0.01-2.23242 0.957844-2.23242 2.15234 0 0.5388 0.126321 0.736744 0.271484 1.15234 0.139115 0.3984 0.32515 0.856041 0.529297 1.30664-0.702542-0.092997-1.39965-0.186091-2.41797-0.308591-1.44164-0.1735-2.98126-0.374969-3.23828-0.417969a1.0001 1.0001 0 0 0-0.089844-0.013672c-1.68383-0.1253-2.91002 1.3533-2.84375 2.8457v3.17774c0 1.9177 0.00637 2.99321 0.066406 3.72461 0.060039 0.7315 0.269098 1.30293 0.546875 1.64453 0.147808 0.181599 0.401634 0.450721 0.757812 0.607421 0.356179 0.1567 0.71936 0.192307 1.13672 0.191407 0.834342 0 2.02798-0.156119 4.30273-0.449219 0.673631-0.087 1.22794-0.155556 1.76563-0.222656-0.430126 0.8689-0.740091 1.59154-0.748047 2.33594-0.00849 0.794 0.517062 1.59803 1.17578 1.95703 0.169777 0.092 0.642876 0.272163 1.06641 0.226563 0.42353-0.046 0.795315-0.188706 1.38086-0.441406 0.6435-0.277657 1.65075-0.763934 2.99414-1.42969v-2.23633c-1.76395 0.878795-3.11468 1.54074-3.78516 1.83008-0.467497 0.2017-0.664117 0.246366-0.722657 0.259766-0.100175-0.038-0.111096 0.01607-0.109375-0.144532 0.0021-0.1971 0.154726-0.770428 0.580078-1.61133 0.217236-0.4295 0.396949-0.817859 0.521485-1.13086 0.06227-0.1566 0.110248-0.285713 0.150391-0.445313 0.02007-0.08 0.04863-0.151709 0.04492-0.349609-0.0019-0.099 0.0048-0.243428-0.128906-0.486328-0.133735-0.2429-0.569836-0.525691-0.890625-0.525391a1.0001 1.0001 0 0 0-2e-3 0c-0.184764 6e-4 -0.138622 0.01158-0.199219 0.01758-0.0606 0.01-0.137896 0.01244-0.232422 0.02344-0.189052 0.022-0.446139 0.0528-0.757812 0.0918-0.623346 0.077-1.45837 0.181075-2.35742 0.296875-2.27169 0.2928-3.49393 0.432394-4.05273 0.433594-0.262731 5.64e-4 -0.324315-0.02547-0.308594-0.01758-0.00526-0.0077-0.00284-0.0082-0.03125-0.04297-0.07172-0.088-0.058441 0.02903-0.10542-0.542973-0.04698-0.5723-0.058594-1.6516-0.058594-3.5625v-3.22266a1.0001 1.0001 0 0 0-0.00195-0.04492c-0.01803-0.406 0.22478-0.791566 0.693359-0.759766 0.496079 0.08 1.82739 0.249622 3.24219 0.419922 1.44212 0.1736 3.01044 0.374341 3.38477 0.431641l0.785156 0.121093a1.0001 1.0001 0 0 0 1.06055-1.4043l-0.732425-1.60156c-0.188226-0.4112-0.361863-0.846206-0.482422-1.19141-0.082811-0.237117-0.124713-0.4917-0.144531-0.550781 0.0097-0.047005 0.05257-0.073594 0.136719-0.080078 0.01909 0.00427 0.02921 0.0038 0.0625 0.015625 0.128565 0.046 0.324574 0.125516 0.564453 0.228516 0.479758 0.206 1.1396 0.509353 1.91016 0.876953 1.54112 0.7351 3.52944 1.72738 5.5 2.73828 1.97056 1.011 3.92435 2.04247 5.40039 2.85547 0.738018 0.4065 1.35806 0.758231 1.78906 1.01953 0.167946 0.1019 0.277664 0.174688 0.378906 0.242188-0.02919 0.023 0.01495-0.01003-0.291015 0.201172-0.589864 0.399796-1.99101 1.14302-3.8457 2.0957v2.24805c2.35753-1.19443 4.09744-2.09826 4.9668-2.6875 0.599157-0.4062 1.05181-0.75465 1.24024-1.40625 0.188421-0.6515-0.110511-1.19675-0.287109-1.50195-0.141664-0.2449-0.220061-0.27875-0.296876-0.34375-0.07681-0.065-0.150838-0.118682-0.232421-0.175781-0.163168-0.1142-0.358672-0.23716-0.595703-0.38086-0.474065-0.2875-1.10752-0.6484-1.85938-1.0625-1.5037-0.8283-3.47119-1.86501-5.45508-2.88281-1.98388-1.0177-3.98213-2.01537-5.55078-2.76367-0.784327-0.3742-1.4596-0.685656-1.98242-0.910156-0.261413-0.1122-0.48377-0.204238-0.675781-0.273438-0.192011-0.069-0.243386-0.143338-0.654297-0.148438a1.0001 1.0001 0 0 0-0.0059 0z" color="#000000" color-rendering="auto" image-rendering="auto" shape-rendering="auto" solid-color="#000000" style="block-progression:tb;isolation:auto;mix-blend-mode:normal;text-decoration-color:#000000;text-decoration-line:none;text-decoration-style:solid;text-indent:0;text-transform:none;white-space:normal"/>
</svg>
