<svg version="1.1" viewBox="0 0 32 32" xmlns="http://www.w3.org/2000/svg">
<path d="m21.7325 13.301c-1.53938 0-3.05781 0.6874-4.11133 1.8144-0.792647 0.847-1.13568 1.9594-1.2832 3.1172h-1.14258v6.3067h0.998047v5.623h6.80274v-5.623h1.97461v-2-1.1133-3.1934-3.916l-1.15625-0.5371c-0.643971-0.2999-1.35709-0.4785-2.08203-0.4785zm0 2c0.410156 0 0.822428 0.095 1.23828 0.289v2.4453c-0.381673-0.2108-0.708985-0.3164-0.982422-0.3164-0.381673 0-0.661295 0.1451-0.83789 0.4356-0.102539 0.1652-0.154297 0.5732-0.154297 1.2226v0.8536h1.97461v2.3066h-1.97461v5.623h-2.80274v-5.623h-0.998046v-2.3066h0.998046v-1.0508c0-1.1678 0.296225-2.0689 0.888675-2.7012 0.734866-0.7861 1.61931-1.1777 2.6504-1.1777z" color="#000000" color-rendering="auto" image-rendering="auto" shape-rendering="auto" solid-color="#000000" style="block-progression:tb;isolation:auto;mix-blend-mode:normal;text-decoration-color:#000000;text-decoration-line:none;text-decoration-style:solid;text-indent:0;text-transform:none;white-space:normal"/>
<path d="m12.1836 6.03906v0.00195c-1.17606-0.01-2.23242 0.957844-2.23242 2.15234 0 0.5388 0.126321 0.736744 0.271484 1.15234 0.139115 0.3984 0.32515 0.856041 0.529297 1.30664-0.702542-0.092997-1.39965-0.186091-2.41797-0.308591-1.44164-0.1735-2.98126-0.374969-3.23828-0.417969a1.0001 1.0001 0 0 0-0.089844-0.013672c-1.68383-0.1253-2.91002 1.3533-2.84375 2.8457v3.17774c0 1.9177 0.0064 2.99321 0.066406 3.72461 0.06004 0.7315 0.269098 1.30293 0.546875 1.64453 0.147809 0.181599 0.401634 0.450721 0.757812 0.607421s0.71936 0.192307 1.13672 0.191407c0.834342 0 2.02798-0.156119 4.30273-0.449219 0.673631-0.087 1.22794-0.155556 1.76563-0.222656-0.430126 0.8689-0.74009 1.59154-0.748047 2.33594-0.0085 0.794 0.517062 1.59803 1.17578 1.95703 0.169777 0.092 0.642876 0.272163 1.06641 0.226563 0.42353-0.046 0.795315-0.188706 1.38086-0.441406 0.64792-0.279564 1.67053-0.773694 3.0293-1.44727v-2.23828c-1.78263 0.888271-3.14583 1.55853-3.82031 1.84961-0.467497 0.2017-0.664117 0.246366-0.722657 0.259766-0.100175-0.038-0.111096 0.01607-0.109375-0.144532 0.0021-0.1971 0.154726-0.770428 0.580078-1.61133 0.217236-0.4295 0.396949-0.817859 0.521485-1.13086 0.06227-0.1566 0.110248-0.285713 0.150391-0.445313 0.02007-0.08 0.04863-0.151709 0.04492-0.349609-0.0019-0.099 0.0048-0.243428-0.128906-0.486328-0.133735-0.2429-0.569836-0.525691-0.890625-0.525391a1.0001 1.0001 0 0 0-2e-3 0c-0.184764 6e-4 -0.138621 0.01158-0.199219 0.01758-0.0606 0.01-0.137896 0.01244-0.232422 0.02344-0.189052 0.022-0.446139 0.0528-0.757812 0.0918-0.623346 0.077-1.45837 0.181075-2.35742 0.296875-2.27169 0.2928-3.49393 0.432394-4.05273 0.433594-0.262731 5.64e-4 -0.324315-0.02547-0.308594-0.01758-0.00526-0.0077-0.00284-0.0082-0.03125-0.04297-0.07177-0.088-0.05849 0.02903-0.105469-0.542969-0.04698-0.5723-0.058594-1.6516-0.058594-3.5625v-3.22266a1.0001 1.0001 0 0 0-0.00195-0.04492c-0.01803-0.406 0.22478-0.791566 0.693359-0.759766 0.496079 0.08 1.82739 0.249622 3.24219 0.419922 1.44212 0.1736 3.01044 0.374341 3.38477 0.431641l0.785156 0.121093a1.0001 1.0001 0 0 0 1.06055-1.4043l-0.732376-1.60157c-0.188226-0.4112-0.361863-0.846206-0.482422-1.19141-0.082811-0.237117-0.124713-0.4917-0.144531-0.550781 0.0097-0.047005 0.05257-0.073594 0.136719-0.080078 0.01909 0.00427 0.02921 0.0038 0.0625 0.015625 0.128565 0.046 0.324574 0.125516 0.564453 0.228516 0.479758 0.206 1.1396 0.509353 1.91016 0.876953 1.54112 0.7351 3.52944 1.72738 5.5 2.73828 1.97056 1.011 3.92435 2.04247 5.40039 2.85547 0.738018 0.4065 1.35806 0.758231 1.78906 1.01953 0.167946 0.1019 0.277664 0.174688 0.378906 0.242188-0.02919 0.023 0.01495-0.01003-0.291015 0.201172-0.558724 0.37869-1.82357 1.05513-3.50781 1.92383v2.25c2.16533-1.10015 3.79962-1.9555 4.62891-2.51758 0.599157-0.4062 1.05181-0.75465 1.24024-1.40625 0.188421-0.6515-0.110512-1.19675-0.287109-1.50195-0.141664-0.2449-0.220061-0.27875-0.296876-0.34375-0.07681-0.065-0.150838-0.118682-0.232421-0.175781-0.163168-0.1142-0.358672-0.23716-0.595703-0.38086-0.474065-0.2875-1.10752-0.6484-1.85938-1.0625-1.5037-0.8283-3.47119-1.86501-5.45508-2.88281-1.98388-1.0177-3.98213-2.01537-5.55078-2.76367-0.784327-0.3742-1.4596-0.685656-1.98242-0.910156-0.261413-0.1122-0.48377-0.204238-0.675781-0.273438-0.192011-0.069-0.243386-0.143338-0.654297-0.148438a1.0001 1.0001 0 0 0-0.0059 0z" color="#000000" color-rendering="auto" image-rendering="auto" shape-rendering="auto" solid-color="#000000" style="block-progression:tb;isolation:auto;mix-blend-mode:normal;text-decoration-color:#000000;text-decoration-line:none;text-decoration-style:solid;text-indent:0;text-transform:none;white-space:normal"/>
</svg>
