<svg version="1.1" viewBox="0 0 32 32" xmlns="http://www.w3.org/2000/svg">
<g transform="translate(0 -1020.36)">
<path d="m8.2883 1026.4c-1.30167-0.041-2.40304 1.2075-2.23157 2.4902 0.015658 5.129 0.020148 10.2581 0.042794 15.387 0.072482 1.3528 1.56999 2.468 2.8673 1.8915 2.75916-1.1191 5.36524-2.5799 8.04188-3.8784 2.62885-1.3721 5.36456-2.5673 7.85267-4.1912 0.837843-0.4809 1.41083-1.5705 0.8814-2.4861-0.440318-0.9337-1.52811-1.2513-2.33651-1.7923-4.45-2.4478-8.96422-4.7881-13.5789-6.9109-0.501562-0.1796-0.99327-0.5096-1.53907-0.5098zm-0.01953 2.0039c0.378958 0.2009 1.64585 0.7086 2.33344 1.0643 4.37634 2.1304 8.73626 4.3108 12.9484 6.7527 0.567321 0.4046-0.98923 0.7955-1.30826 1.1309-4.16291 2.2059-8.38491 4.3008-12.6186 6.3671-0.466955 0.1303-1.66467 1.0561-1.52968 0.093-0.00926-5.1111-0.032665-10.2227-0.033092-15.3335-0.00382-0.1115 0.222993 0 0.20772-0.074zm15.6953 7.8848c-0.265823-9e-4 0.12644 0.4163 0 0z" color="#000000" color-rendering="auto" image-rendering="auto" shape-rendering="auto" solid-color="#000000" style="isolation:auto;mix-blend-mode:normal;text-decoration-color:#000000;text-decoration-line:none;text-decoration-style:solid;text-indent:0;text-transform:none;white-space:normal"/>
</g>
</svg>
