<svg version="1.1" viewBox="0 0 32 32" xmlns="http://www.w3.org/2000/svg">
<path d="m19.8086 6.03906c-0.410911 0.0051-0.462286 0.079438-0.654297 0.148438-0.192011 0.0692-0.414368 0.161238-0.675781 0.273438-0.522827 0.2245-1.1981 0.535956-1.98242 0.910156-1.56866 0.7483-3.5669 1.74597-5.55078 2.76367-1.98388 1.0178-3.95137 2.05451-5.45508 2.88281-0.751853 0.4141-1.38531 0.775-1.85938 1.0625-0.237032 0.1437-0.432535 0.266659-0.595703 0.38086-0.081583 0.0571-0.155612 0.110781-0.232422 0.175781-0.076814 0.065-0.155212 0.09885-0.296875 0.34375-0.176598 0.3052-0.47553 0.850453-0.287109 1.50195 0.188421 0.6516 0.641078 1.00005 1.24023 1.40625 0.699781 0.474302 2.07039 1.19902 3.75391 2.0625-7.917e-4 0.033884-0.0097656 0.067711-0.0097656 0.101562 0 0.56 0.0799994 1.13667 0.318359 1.70117 0.05287 0.1252 0.169075 0.208772 0.236328 0.326172l-1.79883 3.50781 1.61523 0.960937c1.29249 0.7684 2.72984 1.19531 4.19141 1.19531 1.55671 0 3.06494-0.40981 4.19141-1.41211 0.452658-0.401949 0.816036-0.906781 1.08203-1.45898 0.501652 0.242581 1.03468 0.502517 1.3457 0.636719 0.585544 0.2527 0.957329 0.395406 1.38086 0.441406 0.42353 0.0456 0.896629-0.134563 1.06641-0.226563 0.65872-0.359 1.18428-1.16303 1.17578-1.95703-0.007999-0.7444-0.31792-1.46704-0.748046-2.33594 0.537684 0.0671 1.09199 0.135656 1.76562 0.222656 2.27475 0.2931 3.46839 0.449219 4.30273 0.449219 0.417359 9e-4 0.78054-0.03471 1.13672-0.191407 0.356179-0.1567 0.610003-0.425823 0.757812-0.607421 0.277777-0.3416 0.486835-0.913032 0.546875-1.64453 0.06001-0.7314 0.066407-1.80691 0.066407-3.72461v-3.17774c0.066269-1.4924-1.15992-2.971-2.84375-2.8457a1.0001 1.0001 0 0 0-0.089844 0.0136718c-0.257021 0.043-1.79664 0.244469-3.23828 0.417969-1.01832 0.1225-1.71543 0.215594-2.41797 0.308594 0.204147-0.4506 0.390182-0.908241 0.529297-1.30664 0.145163-0.4156 0.271484-0.613544 0.271484-1.15234 0-1.1945-1.05636-2.16234-2.23242-2.15234v-0.0019531a1.0001 1.0001 0 0 0-0.005859 0zm0.085937 2.01562c0.0855 0.00659 0.12943 0.0333732 0.138672 0.0820313-0.01997 0.060971-0.06411 0.312967-0.146484 0.548828-0.120559 0.3452-0.294196 0.780206-0.482422 1.19141l-0.732422 1.60156a1.0001 1.0001 0 0 0 1.06055 1.4043l0.785156-0.121093c0.374322-0.0573 1.94264-0.258041 3.38477-0.431641 1.4148-0.1703 2.74611-0.339922 3.24219-0.419922 0.468579-0.0318 0.71139 0.353766 0.69336 0.759766a1.0001 1.0001 0 0 0-0.001953 0.044922v3.22266c0 1.9109-0.011614 2.9902-0.058594 3.5625-0.04698 0.572-0.0337 0.454969-0.105469 0.542969-0.02841 0.03482-0.02599 0.035258-0.03125 0.042969 0.01572-0.0079-0.04586 0.018138-0.308594 0.017578-0.558803-0.0012-1.78105-0.140794-4.05273-0.433594-0.899054-0.1158-1.73408-0.219875-2.35742-0.296875-0.311673-0.039-0.56876-0.069797-0.757813-0.091797-0.094529-0.011-0.171821-0.013437-0.232421-0.023438-0.0606-6e-3 -0.01445-0.016978-0.199219-0.017578a1.0001 1.0001 0 0 1-0.001953 0c-0.320789-3e-4 -0.75689 0.282491-0.890625 0.525391-0.133706 0.2429-0.127007 0.387328-0.128906 0.486328-0.0037 0.1979 0.024851 0.26961 0.044921 0.349609 0.04014 0.159601 0.08812 0.288713 0.150391 0.445313 0.124536 0.313 0.304248 0.701359 0.521484 1.13086 0.425352 0.8409 0.577979 1.41423 0.580078 1.61133 0.0017 0.160601-0.0092 0.106532-0.109374 0.144532-0.058541-0.0134-0.25516-0.05807-0.722657-0.259766-0.348924-0.150578-1.03283-0.485651-1.64844-0.783203 0.001089-0.040473 0.005859-0.080684 0.005859-0.121094 0-1.0144-0.418034-2.06265-1.11328-2.84375l1.67383-3.19726-2.0293-0.833985c-1.06187-0.4364-2.19294-0.662109-3.33398-0.662109v0.001953c-1.62014 0-3.21843 0.473191-4.29492 1.65039h-0.0019531c-0.28975 0.3177-0.517281 0.689342-0.710938 1.08008-1.47464-0.764632-2.63178-1.38622-3.14258-1.73242-0.305965-0.2112-0.261826-0.178172-0.291016-0.201172 0.101242-0.0675 0.21096-0.140288 0.378906-0.242188 0.430998-0.2613 1.05104-0.613031 1.78906-1.01953 1.47604-0.813 3.42983-1.84447 5.40039-2.85547 1.97056-1.0109 3.95888-2.00318 5.5-2.73828 0.770558-0.3676 1.4304-0.670953 1.91016-0.876953 0.239879-0.103 0.435888-0.182516 0.564453-0.228516 0.03272-0.011624 0.04342-0.011333 0.0625-0.015625zm-7.16406 9.18164c0.882976 0 1.74056 0.169919 2.57226 0.511719l-0.947265 1.8125c-0.524088-0.2678-1.02539-0.402344-1.50391-0.402344-0.563964 0-0.845703 0.194631-0.845703 0.582031 0 0.1766 0.113932 0.317582 0.341797 0.425782 0.102539 0.051 0.402994 0.127968 0.904297 0.230468 0.734863 0.1538 1.27751 0.400229 1.625 0.736328 0.438639 0.421601 0.65625 0.968425 0.65625 1.64063 0 0.843199-0.300456 1.53101-0.904297 2.06641-0.677897 0.6039-1.63281 0.90625-2.86328 0.90625-1.08805 0-2.14453-0.304463-3.16992-0.914063l1.01758-1.98242c0.803222 0.5298 1.54899 0.794922 2.23828 0.794922 0.586751 0 0.878907-0.202922 0.878907-0.607422 0-0.2107-0.101563-0.372428-0.306641-0.486328-0.131023-0.074-0.427247-0.163125-0.888672-0.265625-0.518392-0.114-0.858073-0.200972-1.01758-0.263672-0.569662-0.2222-0.952963-0.570168-1.15234-1.04297-0.108236-0.2563-0.162109-0.564929-0.162109-0.923828 0-0.694901 0.236165-1.29996 0.708984-1.81836 0.609539-0.6665 1.54801-1 2.81836-1z" color="#000000" color-rendering="auto" image-rendering="auto" shape-rendering="auto" solid-color="#000000" style="block-progression:tb;isolation:auto;mix-blend-mode:normal;text-decoration-color:#000000;text-decoration-line:none;text-decoration-style:solid;text-indent:0;text-transform:none;white-space:normal"/>
</svg>
