<svg version="1.1" viewBox="0 0 32 32" xmlns="http://www.w3.org/2000/svg">
<path d="m13.5653 13.301c-1.53938 0-3.05781 0.6874-4.11133 1.8144-0.792647 0.847-1.13568 1.9594-1.2832 3.1172h-1.14258v6.3067h0.998047v5.623h6.80274v-5.623h1.97461v-2-1.1133-3.1934-3.916l-1.15625-0.5371c-0.643971-0.2999-1.35709-0.4785-2.08203-0.4785zm0 2c0.410156 0 0.822428 0.095 1.23828 0.289v2.4453c-0.381673-0.2108-0.708985-0.3164-0.982422-0.3164-0.381673 0-0.661295 0.1451-0.83789 0.4356-0.102539 0.1652-0.154297 0.5732-0.154297 1.2226v0.8536h1.97461v2.3066h-1.97461v5.623h-2.80274v-5.623h-0.998046v-2.3066h0.998046v-1.0508c0-1.1678 0.296225-2.0689 0.888675-2.7012 0.734866-0.7861 1.61931-1.1777 2.6504-1.1777z" color="#000000" color-rendering="auto" image-rendering="auto" shape-rendering="auto" solid-color="#000000" style="block-progression:tb;isolation:auto;mix-blend-mode:normal;text-decoration-color:#000000;text-decoration-line:none;text-decoration-style:solid;text-indent:0;text-transform:none;white-space:normal"/>
<path d="m19.8086 6.03906c-0.410911 0.0051-0.462286 0.079438-0.654297 0.148438-0.192011 0.0692-0.414368 0.161238-0.675781 0.273438-0.522827 0.2245-1.1981 0.535956-1.98242 0.910156-1.56866 0.7483-3.5669 1.74597-5.55078 2.76367-1.98388 1.0178-3.95137 2.05451-5.45508 2.88281-0.751853 0.4141-1.38531 0.775-1.85938 1.0625-0.237032 0.1437-0.432535 0.26666-0.595703 0.38086-0.081583 0.0571-0.155612 0.110781-0.232422 0.175781-0.076814 0.065-0.155212 0.09885-0.296875 0.34375-0.176598 0.3052-0.47553 0.850453-0.287109 1.50195 0.188421 0.6516 0.641078 1.00005 1.24023 1.40625 0.866856 0.587544 2.60005 1.48933 4.94531 2.67773v-2.24805c-1.84382-0.947329-3.23629-1.68745-3.82422-2.08594-0.305965-0.2112-0.261826-0.178172-0.291016-0.201172 0.101242-0.0675 0.21096-0.140288 0.378906-0.242188 0.430998-0.2613 1.05104-0.613031 1.78906-1.01953 1.47604-0.813 3.42983-1.84447 5.40039-2.85547 1.97056-1.0109 3.95888-2.00318 5.5-2.73828 0.770558-0.3676 1.4304-0.670953 1.91016-0.876953 0.239879-0.103 0.435888-0.182516 0.564453-0.228516 0.03272-0.011624 0.04342-0.011333 0.0625-0.015625 0.0855 0.00659 0.12943 0.033373 0.138672 0.082031-0.01997 0.060971-0.06411 0.312967-0.146484 0.548828-0.120559 0.3452-0.294196 0.780206-0.482422 1.19141l-0.732422 1.60156c-0.330487 0.723263 0.27446 1.52429 1.06055 1.4043l0.785156-0.121093c0.374322-0.0573 1.94264-0.258041 3.38477-0.431641 1.4148-0.1703 2.74611-0.339922 3.24219-0.419922 0.468579-0.0318 0.71139 0.353766 0.69336 0.759766-1e-3 0.01496-0.0017 0.02993-2e-3 0.04492v3.22266c0 1.9109-0.01161 2.9902-0.05859 3.5625-0.04698 0.572-0.0337 0.454969-0.105469 0.542969-0.02841 0.03482-0.02599 0.03526-0.03125 0.04297 0.01572-0.0079-0.04586 0.01814-0.308594 0.01758-0.558803-0.0012-1.78105-0.140794-4.05273-0.433594-0.899054-0.1158-1.73408-0.219875-2.35742-0.296875-0.311673-0.039-0.56876-0.0698-0.757813-0.0918-0.09453-0.011-0.171821-0.01344-0.232421-0.02344-0.0606-6e-3 -0.01445-0.01698-0.199219-0.01758h-2e-3c-0.320789-3e-4 -0.75689 0.282491-0.890625 0.525391-0.133706 0.2429-0.127007 0.387328-0.128906 0.486328-0.0037 0.1979 0.02485 0.26961 0.04492 0.349609 0.04014 0.1596 0.08812 0.288713 0.150391 0.445313 0.124536 0.313 0.304248 0.701359 0.521484 1.13086 0.425352 0.8409 0.577979 1.41423 0.580078 1.61133 0.0017 0.160601-0.0092 0.106532-0.109374 0.144532-0.05854-0.0134-0.25516-0.05807-0.722657-0.259766-0.610736-0.263564-3.35615-1.61796-3.35615-1.61796l-1.08721 1.69413s2.92604 1.44638 3.65234 1.75977c0.585544 0.2527 0.957329 0.395406 1.38086 0.441406 0.42353 0.0456 0.896629-0.134563 1.06641-0.226563 0.65872-0.359 1.18428-1.16303 1.17578-1.95703-8e-3 -0.7444-0.31792-1.46704-0.748046-2.33594 0.537684 0.0671 1.09199 0.135656 1.76562 0.222656 2.27475 0.2931 3.46839 0.449219 4.30273 0.449219 0.417359 9e-4 0.78054-0.03471 1.13672-0.191407 0.356179-0.1567 0.610003-0.425822 0.757812-0.607421 0.277777-0.3416 0.486835-0.913032 0.546875-1.64453 0.06001-0.7314 0.06641-1.80691 0.06641-3.72461v-3.17774c0.06627-1.4924-1.15992-2.971-2.84375-2.8457-0.03014 0.00319-0.06012 0.00776-0.08984 0.013672-0.257021 0.043-1.79664 0.244469-3.23828 0.417969-1.01832 0.1225-1.71543 0.215594-2.41797 0.308594 0.204147-0.4506 0.390182-0.908241 0.529297-1.30664 0.145163-0.4156 0.271484-0.613544 0.271484-1.15234 0-1.1945-1.05636-2.16234-2.23242-2.15234v-0.00195c-2e-3 -5.8e-6 -0.0039-5.8e-6 -0.0059 0z" color="#000000" color-rendering="auto" image-rendering="auto" shape-rendering="auto" solid-color="#000000" style="isolation:auto;mix-blend-mode:normal;text-decoration-color:#000000;text-decoration-line:none;text-decoration-style:solid;text-indent:0;text-transform:none;white-space:normal"/>
</svg>
