<svg version="1.1" viewBox="0 0 32 32" xmlns="http://www.w3.org/2000/svg">
<g transform="translate(0 -1020.36)">
<path d="m29.6484 1026.4c1.30167-0.041 2.40304 1.2075 2.23158 2.4902-0.01566 5.129-0.02015 10.2581-0.04279 15.387-0.07248 1.3528-1.56999 2.468-2.8673 1.8915-2.75916-1.1191-5.36524-2.5799-8.04188-3.8784-2.62885-1.3721-5.36456-2.5673-7.85267-4.1912-0.837843-0.4809-1.41083-1.5705-0.8814-2.4861 0.440318-0.9337 1.52811-1.2513 2.33651-1.7923 4.45-2.4478 8.96422-4.7881 13.5789-6.9109 0.501559-0.1796 0.993276-0.5096 1.53907-0.5098zm0.01953 2.0039c-0.378959 0.2009-1.64585 0.7086-2.33344 1.0643-4.37634 2.1304-8.73626 4.3108-12.9484 6.7527-0.567321 0.4046 0.98923 0.7955 1.30826 1.1309 4.16291 2.2059 8.38491 4.3008 12.6186 6.3671 0.466955 0.1303 1.66467 1.0561 1.52968 0.093 0.0093-5.1111 0.03266-10.2227 0.03309-15.3335 0.0038-0.1115-0.222994 0-0.20772-0.074zm-15.6953 7.8848c0.265823-9e-4 -0.12644 0.4163 0 0z" color="#000000" color-rendering="auto" image-rendering="auto" shape-rendering="auto" solid-color="#000000" style="isolation:auto;mix-blend-mode:normal;text-decoration-color:#000000;text-decoration-line:none;text-decoration-style:solid;text-indent:0;text-transform:none;white-space:normal"/>
<path d="m21.6484 1026.4c1.30167-0.041 2.40304 1.2075 2.23158 2.4902-0.01566 5.129-0.02015 10.2581-0.04279 15.387-0.07248 1.3528-1.56999 2.468-2.8673 1.8915-2.75916-1.1191-5.36524-2.5799-8.04188-3.8784-2.62885-1.3721-5.36456-2.5673-7.85267-4.1912-0.837842-0.4809-1.41083-1.5705-0.881399-2.4861 0.440317-0.9337 1.52811-1.2513 2.33651-1.7923 4.45-2.4478 8.96422-4.7881 13.5789-6.9109 0.501559-0.1796 0.993276-0.5096 1.53907-0.5098zm0.01953 2.0039c-0.378959 0.2009-1.64585 0.7086-2.33344 1.0643-4.37634 2.1304-8.73626 4.3108-12.9484 6.7527-0.567321 0.4046 0.98923 0.7955 1.30826 1.1309 4.16291 2.2059 8.38491 4.3008 12.6186 6.3671 0.466955 0.1303 1.66467 1.0561 1.52968 0.093 0.0093-5.1111 0.03266-10.2227 0.03309-15.3335 0.0038-0.1115-0.222994 0-0.20772-0.074zm-15.6953 7.8848c0.265823-9e-4 -0.12644 0.4163 0 0z" color="#000000" color-rendering="auto" image-rendering="auto" shape-rendering="auto" solid-color="#000000" style="isolation:auto;mix-blend-mode:normal;text-decoration-color:#000000;text-decoration-line:none;text-decoration-style:solid;text-indent:0;text-transform:none;white-space:normal"/>
<rect transform="scale(-1,1)" x="-7.78374" y="1027.53" width="6.36089" height="17.4815" fill="none" stroke="#000" stroke-width="2"/>
</g>
</svg>
