<svg version="1.1" viewBox="0 0 32 32" xmlns="http://www.w3.org/2000/svg">
<g transform="translate(0 -1020.36)">
<g>
<path d="m28.1891 1048.04h0.612831l5.02e-4 1.2375h1.18243l7.47e-4 0.8226h-1.79651z"/>
<path d="m3.10198 1021.55c-0.520436 0-0.942036 0.4224-0.941072 0.9429l0.042275 28.1567c0.00106 0.519 0.42207 0.9392 0.941072 0.9393h26.4823c0.519718-1e-4 0.94102-0.4214 0.941072-0.9411v-27.0852l-1.91339-2.0126h-25.5523zm25.5045 26.8848h1.11017v1.1102h-1.11017v-1.1102z" color="#000000" color-rendering="auto" fill="#333" image-rendering="auto" shape-rendering="auto" solid-color="#000000" style="block-progression:tb;isolation:auto;mix-blend-mode:normal;text-decoration-color:#000000;text-decoration-line:none;text-decoration-style:solid;text-indent:0;text-transform:none;white-space:normal"/>
<rect x="5.06799" y="1034.22" width="22.5768" height="17.0249" rx="2" ry="2" fill="#ccc"/>
<rect x="3.17696" y="1048.43" width="1.11034" height="1.11034"/>
<path d="m2.79902 1025.14 0.527079-1.5536 0.566023 1.5478-0.297719 0.01v0.8172h-0.526851v-0.8231z"/>
<path d="m6.961 1034.2c-1.04271 0-1.88214 0.8394-1.88214 1.8821v1.7131h22.5765v-1.7131c0-1.0427-0.839436-1.8821-1.88214-1.8821h-18.8122z" fill="#e6e6e6"/>
</g>
<g>
<g>
<path d="m11.5308 1041.56c0.0479 0.5501-0.668845 1.0569-0.789069 0.2687-0.783362-0.4646-1.69946 0.2695-2.30359 0.7534-0.795053 0.7452-1.60196 1.7627-1.42052 2.9214 0.322096 0.725 1.29369 0.4203 1.85743 0.1901 0.617235-0.3184 1.44578-0.6159 1.59104-1.3874-0.08257-0.6124 0.558847-0.8434 0.85452-0.3488-0.29052 0.6972-0.584163 1.4015-0.771326 2.1403-0.264599 0.4563 0.34993 1.6543-0.578275 1.3497-0.603698-0.3906 0.33008-1.6069 0.024436-1.782-0.850687 0.4879-1.8683 1.1202-2.87557 0.7255-0.865736-0.2658-0.894834-1.294-0.66854-2.0168 0.31061-1.2319 1.30385-2.1843 2.35452-2.8311 0.733077-0.3908 1.67321-0.7289 2.46951-0.3285 0.125097 0.073 0.241101 0.2111 0.255428 0.3455z"/>
<path d="m18.9679 1041.03c-0.401541 0.6938-0.220929 1.5441-0.363109 2.3092-0.144668 0.9615-0.114934 1.9344-0.09041 2.9028 0.88748 0.3508-0.401979 1.2281-0.569505 0.3682-0.364563-1.1502 0.01813-2.3416 0.07903-3.5063 0.07528-0.3995 0.172378-1.3095-0.250243-0.5238-0.658084 0.8406-1.25077 1.7332-1.90289 2.5753-0.705244 0.5474-1.03769-0.727-1.34209-1.179-0.289649-0.46-0.446437-1.6226-0.662065-1.7178-0.260432 0.9506-0.536507 1.9032-0.708408 2.8728 0.03935 0.5032 0.313542 1.716-0.584892 1.3456-0.488776-0.6649 0.04539-1.4714 0.152111-2.1769 0.235995-0.881 0.481289-1.7619 0.687662-2.6475 0.274555-0.7154 1.21148-0.033 1.15226 0.5536 0.186458 0.8223 0.552939 1.5992 1.01768 2.3008 0.54845-0.4014 0.71361-1.1254 1.22048-1.5783 0.586581-0.7073 1.13978-1.4438 1.63436-2.2147 0.188375-0.011 0.479456 0.1189 0.530038 0.316z"/>
<path d="m25.8777 1044.24c-0.242799 0.7853-1.08307 1.1923-1.68696 1.6865-0.952791 0.6243-2.13876 1.272-3.30553 0.8983-0.933947-0.3445-0.992243-1.5157-0.767175-2.3389 0.420365-1.6375 1.8145-2.9819 3.45331-3.374 0.943627-0.2506 1.47218 0.9568 0.70057 1.5316-0.390984 0.6173-1.04761-0.2103-0.387159-0.5328 0.600672-0.7566-0.981521-0.3108-1.27762 0-1.18674 0.7489-2.07844 2.137-1.93832 3.573 0.133431 0.8705 1.24344 0.8039 1.85997 0.5352 1.2174-0.4748 2.25426-1.3232 3.18299-2.2244 0.09724 0.04 0.1693 0.1391 0.165921 0.2441z"/>
</g>
<path d="m4.75253 1021.58v9.714c0 0.3616 0.296323 0.6598 0.658015 0.6598h18.1653c0.361693 0 0.659853-0.2982 0.659853-0.6598v-9.714h-0.376795v9.714c0 0.1597-0.123396 0.2831-0.283058 0.2831h-18.1653c-0.159661 0-0.281218-0.1234-0.281218-0.2831v-9.714h-0.376797z" color="#000000" color-rendering="auto" fill-opacity=".473373" image-rendering="auto" shape-rendering="auto" solid-color="#000000" style="block-progression:tb;isolation:auto;mix-blend-mode:normal;text-decoration-color:#000000;text-decoration-line:none;text-decoration-style:solid;text-indent:0;text-transform:none;white-space:normal"/>
</g>
<path d="m9.13991 1021.56v10.1771h14.9303v-10.1771h-14.9303zm8.88136 1.6284h3.77531v7.9219h-3.77531v-7.9219z" fill="#999"/>
</g>
</svg>
