<svg version="1.1" viewBox="0 0 32 32" xmlns="http://www.w3.org/2000/svg" xmlns:xlink="http://www.w3.org/1999/xlink">
<path d="m23.5234 5.67383-19.9922 0.0019531c-0.4142 4.11e-5 -0.74996 0.3358-0.75 0.75v18.9824c4.1e-5 0.4142 0.3358 0.74996 0.75 0.75h20.0352c0.19842-3.7e-5 0.388737-0.0787 0.529297-0.21875l4.63281-4.62891c0.14077-0.14024 0.220153-0.330597 0.220703-0.529297l0.021484-9.66211c1e-3 -0.19977-0.07774-0.391693-0.21875-0.533203l-4.69922-4.69141c-0.14-0.1403-0.330296-0.220703-0.529296-0.220703zm-16.8066 1.50195h2.77148l-3.78125 17.4824h-1.42578v-6.2207l2.43555-11.2617zm5.53516 0h2.76172l-3.78125 17.4824h-2.75977l3.7793-17.4824zm5.52734 0h2.76562l-3.78125 17.4824h-2.76562l3.78125-17.4824zm5.51367 0.0800782 2.27539 2.27344-1.1543 5.33594c0.237656-0.178062 0.529542-0.287109 0.84961-0.287109 0.786 0 1.42383 0.637858 1.42383 1.42383 0 0.787-0.637858 1.42383-1.42383 1.42383-0.538898 0-1.00233-0.301251-1.24414-0.742187l-1.72461 7.97461h-2.76562l3.76367-17.4023zm4.17188 6.28711-0.015625 6.92383-1.89062 1.88867 1.90625-8.8125z" color="#000000" color-rendering="auto" fill="#fff" image-rendering="auto" shape-rendering="auto" solid-color="#000000" style="isolation:auto;mix-blend-mode:normal;text-decoration-color:#000000;text-decoration-line:none;text-decoration-style:solid;text-indent:0;text-transform:none;white-space:normal"/>
<path d="m7.7622 14.868c2.7028-6.2362 11.883-7.6018 17.269-2.208l1.407-1.5723c-6.41-5.8351-18.6-4.3553-22.507 3.83-0.39787 0.83441-0.39787 1.4082 0 2.2425 3.907 8.1851 16.097 9.6645 22.507 3.8301l-1.407-1.5726c-5.3857 5.3943-14.565 4.0281-17.269-2.2076-0.51175-1.1811-0.51175-1.161 0-2.3423zm9.0437-1.4851c0.73328 0 1.3976 0.29737 1.8782 0.77797 0.48044 0.4806 0.77781 1.1447 0.77781 1.8781 0 0.73344-0.29737 1.3976-0.77781 1.8782-0.4806 0.4806-1.1449 0.77796-1.8782 0.77796-0.73349 0-1.3976-0.29737-1.8782-0.77796-0.4806-0.4806-0.77781-1.1447-0.77781-1.8782 0-0.73334 0.29721-1.3975 0.77781-1.8781s1.1447-0.77797 1.8782-0.77797zm0.0041 2.6443 0.71043-1.7102c-0.21998-0.09128-0.46137-0.14197-0.71437-0.14197-0.5147 0-0.98094 0.20878-1.3181 0.54601-0.33723 0.33723-0.54601 0.80342-0.54601 1.318 0 0.5147 0.20878 0.98089 0.54601 1.3181 0.33718 0.33723 0.80342 0.54601 1.3181 0.54601 0.51465 0 0.98074-0.20878 1.3181-0.54601 0.33723-0.33718 0.54601-0.80336 0.54601-1.3181 0-0.15959-0.02027-0.31458-0.05805-0.46256z" fill-rule="evenodd"/>
</svg>
