<svg version="1.1" viewBox="0 0 32 32" xmlns="http://www.w3.org/2000/svg" xmlns:xlink="http://www.w3.org/1999/xlink">
<path d="m23.5371 5.67773-19.9922 0.0019531c-0.4142 4.2e-5 -0.74996 0.3358-0.75 0.75v18.9824c4.1e-5 0.4142 0.3358 0.74996 0.75 0.75h20.0352c0.19842-3.7e-5 0.388737-0.0787 0.529297-0.21875l4.63281-4.62891c0.140769-0.14024 0.220153-0.330597 0.220703-0.529297l0.021484-9.66211c1e-3 -0.199756-0.07774-0.391702-0.21875-0.533203l-4.69922-4.69141c-0.14-0.140299-0.330297-0.220703-0.529297-0.220703zm-16.8066 1.50195h2.77148l-3.78125 17.4824h-1.42578v-6.2207l2.43555-11.2617zm5.53516 0h2.76172l-3.78125 17.4824h-2.75977l3.7793-17.4824zm5.52734 0h2.76562l-3.78125 17.4824h-2.76562l3.78125-17.4824zm5.51367 0.0800781 2.27539 2.27344c-0.383504 1.7721-0.766895 3.54429-1.15039 5.31641 0.234311-0.169589 0.520432-0.271484 0.832031-0.271484 0.786 0 1.42383 0.637858 1.42383 1.42383 0 0.787-0.637858 1.42383-1.42383 1.42383-0.531402 0-0.987783-0.293741-1.23242-0.724609-0.574223 2.65363-1.14876 5.30722-1.72266 7.96094h-2.76562l3.76367-17.4023zm4.17188 6.28711-0.015625 6.92383-1.89062 1.88867 1.90625-8.8125z" color="#000000" color-rendering="auto" fill="#fff" image-rendering="auto" shape-rendering="auto" solid-color="#000000" style="isolation:auto;mix-blend-mode:normal;text-decoration-color:#000000;text-decoration-line:none;text-decoration-style:solid;text-indent:0;text-transform:none;white-space:normal"/>
<path d="m0.445312 10.043v1.54492h3.40234v10.8535h2.81836v-10.8535h3.4043v-1.54492h-9.625zm9.97656 0 3.7793 6.43555-3.88477 5.96289h2.15039l2.87891-4.17578 2.47461 4.17578h3.42969l-4.125-6.91797 3.53906-5.48047h-2.20898l-2.33789 3.75391-2.29297-3.75391h-3.40234zm11.0156 0v1.54492h3.4043v3.06055c0.134052-0.041797 0.27399-0.070313 0.421875-0.070313 0.786 0 1.42383 0.637858 1.42383 1.42383 0 0.787-0.637858 1.42383-1.42383 1.42383-0.147891 0-0.287821-0.028565-0.421875-0.070312v5.08594h2.81836v-10.8535h3.4043v-1.54492h-9.62695z"/>
</svg>
