<svg version="1.1" viewBox="0 0 32 32" xmlns="http://www.w3.org/2000/svg" xmlns:xlink="http://www.w3.org/1999/xlink">
<path d="m23.5303 5.67969-19.9922 0.00195c-0.4142 4.11e-5 -0.74996 0.3358-0.75 0.75v18.9824c4.1e-5 0.4142 0.3358 0.74996 0.75 0.75h20.0352c0.19842-3.7e-5 0.388737-0.0787 0.529297-0.21875l4.63281-4.62891c0.14077-0.14024 0.220153-0.330597 0.220703-0.529297l0.02148-9.66211c1e-3 -0.19977-0.07774-0.391693-0.21875-0.533203l-4.69922-4.69141c-0.14-0.1403-0.330296-0.220703-0.529296-0.220703zm-16.8066 1.50195h2.77148l-3.78125 17.4824h-1.42578v-6.2207zm5.53516 0h2.76172l-3.78125 17.4824h-2.75977zm5.52734 0h2.76562l-3.78125 17.4824h-2.76562zm5.51367 0.080078 2.27539 2.27344-1.1543 5.33594c0.237656-0.178062 0.529542-0.287109 0.84961-0.287109 0.786 0 1.42383 0.637858 1.42383 1.42383 0 0.787-0.637858 1.42383-1.42383 1.42383-0.538898 0-1.00233-0.301251-1.24414-0.742187l-1.72461 7.97461h-2.76562zm4.17188 6.28711-0.01563 6.92383-1.89062 1.88867z" color="#000000" color-rendering="auto" fill="#fff" image-rendering="auto" shape-rendering="auto" solid-color="#000000" style="isolation:auto;mix-blend-mode:normal;text-decoration-color:#000000;text-decoration-line:none;text-decoration-style:solid;text-indent:0;text-transform:none;white-space:normal"/>
<path d="m19.133 3.7852-1.705 3.7929c-5.448-0.2359-11.07 2.2558-13.496 7.3399-0.3982 0.834-0.3982 1.408-4e-4 2.242 1.3547 2.838 3.7147 4.849 6.4744 6.049l-1.4587 3.246 1.9177 0.861 10.186-22.67zm2.637 4.6152-0.75 1.6716c1.447 0.55 2.823 1.398 4.011 2.588l1.407-1.572c-1.344-1.2228-2.946-2.1073-4.668-2.6876zm-5.127 0.9043c3e-3 -1e-4 6e-3 1e-4 9e-3 0l-5.353 11.914c-1.5276-0.94-2.7874-2.278-3.5373-4.008-0.5117-1.181-0.5117-1.162 0-2.344 1.5206-3.508 5.0903-5.4728 8.8813-5.5623zm2.363 5.2463-0.469 1.043 0.074-0.018c0.038 0.148 0.059 0.303 0.059 0.463 0 0.515-0.208 0.981-0.545 1.318-0.157 0.158-0.344 0.282-0.549 0.375l-0.416 0.926c0.59-0.08 1.122-0.341 1.524-0.742 0.48-0.481 0.777-1.143 0.777-1.877 0-0.551-0.168-1.064-0.455-1.488zm6.025 4.867c-2.701 2.706-6.353 3.697-9.666 3.236l-0.769 1.715c4.236 0.557 8.722-0.539 11.842-3.379z" fill-rule="evenodd"/>
<path d="m-36.5098 6.623v18.658h20.61l4.158-4.158 0.023-10.178-4.228-4.322z" fill="none"/>
</svg>
