<svg width="32" height="32" version="1.1" xmlns="http://www.w3.org/2000/svg" xmlns:xlink="http://www.w3.org/1999/xlink">
 <path d="m18.637 0.94531c-5.7943-0.30832-11.843 2.8501-14.334 8.1966 0.27876 1.6656 2.2711 1.1918 3.4475 0.9427 2.8432-0.47474 6.0568 0.55662 7.739 2.9815-0.39444 1.972 3.085 1.8993 2.6825-0.06417 0.05423-1.0282-0.31909-3.6915 1.4338-3.0074 1.4439 0.7728 2.1613 2.3466 3.009 3.6648 1.9802 3.9694 0.93439 9.4825-2.954 11.9-2.2771 1.5151-5.2858 1.8952-7.852 0.92837-1.7589-0.12578-3.2052 2.6042-1.5367 3.6547 2.0685 1.324 4.6745 0.96582 6.9726 0.62326 5.7045-1.2532 10.272-6.8163 9.9036-12.73-0.10944-4.3848-2.456-8.7457-6.2802-10.976-0.29341-1.892 2.4346-1.2608 3.5421-0.9888 1.0418 0.31558 3.1452 0.86587 3.1715-0.81564-0.42157-1.8938-2.3982-2.8504-4.0788-3.4318-1.5585-0.56218-3.2212-0.76521-4.8657-0.87765z"/>
</svg>
