<svg version="1.1" viewBox="0 0 32 32" xmlns="http://www.w3.org/2000/svg">
<g transform="translate(0 -1020.36)">
<path transform="matrix(1.89476 0 0 1.89428 -352.198 323.462)" d="m197.674 374.424c0 2.92894-2.37437 5.3033-5.3033 5.3033-2.92894 0-5.3033-2.37436-5.3033-5.3033 0-2.92893 2.37436-5.3033 5.3033-5.3033 2.92893 0 5.3033 2.37437 5.3033 5.3033z" fill="none" stroke="#000" stroke-width="1.05568"/>
<path d="m29.2856 1049.83-10.0698-10.0671" fill="none" stroke="#000" stroke-width="2"/>
<g>
<path d="m9.07223 1037.37h-1.17917v-7.5139c-0.283879 0.2707-0.656191 0.5415-1.11694 0.8122-0.460752 0.2708-0.874554 0.4739-1.24141 0.6093v-1.1399c0.659462-0.3101 1.23595-0.6856 1.72945-1.1268 0.493502-0.441 0.842886-0.869 1.04815-1.2839h0.759911z"/>
<path d="m11.4012 1031.76v-1.343h1.34295v1.343zm0 5.6142v-1.343h1.34295v1.343z"/>
<path d="m17.8456 1037.37h-1.17917v-7.5139c-0.283878 0.2707-0.656191 0.5415-1.11694 0.8122-0.460752 0.2708-0.874554 0.4739-1.24141 0.6093v-1.1399c0.659462-0.3101 1.23595-0.6856 1.72945-1.1268 0.493502-0.441 0.842886-0.869 1.04815-1.2839h0.759911z"/>
</g>
</g>
</svg>
